<svg width="97" height="15" viewBox="0 0 97 15" fill="none" xmlns="http://www.w3.org/2000/svg">
<path d="M7.82954 12.5296L4.03407 14.8161C3.8664 14.9228 3.6911 14.9685 3.50819 14.9533C3.32527 14.938 3.16522 14.8771 3.02804 14.7704C2.89085 14.6637 2.78415 14.5304 2.70794 14.3707C2.63172 14.2109 2.61648 14.0317 2.66221 13.8329L3.66824 9.51156L0.307183 6.60779C0.154754 6.4706 0.0596385 6.31421 0.0218362 6.13861C-0.0159662 5.96302 -0.00468651 5.79169 0.0556753 5.62462C0.116037 5.45756 0.207494 5.32038 0.330047 5.21307C0.4526 5.10576 0.620272 5.03716 0.833062 5.00729L5.26874 4.61859L6.98356 0.548744C7.05978 0.365829 7.17806 0.228643 7.33842 0.137186C7.49877 0.0457285 7.66248 0 7.82954 0C7.99661 0 8.16031 0.0457285 8.32067 0.137186C8.48102 0.228643 8.59931 0.365829 8.67552 0.548744L10.3903 4.61859L14.826 5.00729C15.0394 5.03777 15.2071 5.10637 15.329 5.21307C15.451 5.31977 15.5424 5.45695 15.6034 5.62462C15.6644 5.7923 15.676 5.96393 15.6382 6.13953C15.6004 6.31513 15.5049 6.47121 15.3519 6.60779L11.9909 9.51156L12.9969 13.8329C13.0426 14.0311 13.0274 14.2103 12.9512 14.3707C12.8749 14.531 12.7682 14.6643 12.6311 14.7704C12.4939 14.8764 12.3338 14.9374 12.1509 14.9533C11.968 14.9691 11.7927 14.9234 11.625 14.8161L7.82954 12.5296Z" fill="#FF3CAC"/>
<path d="M28.0623 12.5296L24.2669 14.8161C24.0992 14.9228 23.9239 14.9685 23.741 14.9533C23.5581 14.938 23.398 14.8771 23.2608 14.7704C23.1236 14.6637 23.0169 14.5304 22.9407 14.3707C22.8645 14.2109 22.8493 14.0317 22.895 13.8329L23.901 9.51156L20.54 6.60779C20.3875 6.4706 20.2924 6.31421 20.2546 6.13861C20.2168 5.96302 20.2281 5.79169 20.2885 5.62462C20.3488 5.45756 20.4403 5.32038 20.5628 5.21307C20.6854 5.10576 20.8531 5.03716 21.0659 5.00729L25.5015 4.61859L27.2164 0.548744C27.2926 0.365829 27.4109 0.228643 27.5712 0.137186C27.7316 0.0457285 27.8953 0 28.0623 0C28.2294 0 28.3931 0.0457285 28.5535 0.137186C28.7138 0.228643 28.8321 0.365829 28.9083 0.548744L30.6231 4.61859L35.0588 5.00729C35.2722 5.03777 35.4399 5.10637 35.5618 5.21307C35.6838 5.31977 35.7752 5.45695 35.8362 5.62462C35.8972 5.7923 35.9088 5.96393 35.871 6.13953C35.8332 6.31513 35.7377 6.47121 35.5847 6.60779L32.2236 9.51156L33.2297 13.8329C33.2754 14.0311 33.2602 14.2103 33.1839 14.3707C33.1077 14.531 33.001 14.6643 32.8638 14.7704C32.7267 14.8764 32.5666 14.9374 32.3837 14.9533C32.2008 14.9691 32.0255 14.9234 31.8578 14.8161L28.0623 12.5296Z" fill="#FF3CAC"/>
<path d="M48.295 12.5296L44.4995 14.8161C44.3318 14.9228 44.1566 14.9685 43.9736 14.9533C43.7907 14.938 43.6307 14.8771 43.4935 14.7704C43.3563 14.6637 43.2496 14.5304 43.1734 14.3707C43.0972 14.2109 43.0819 14.0317 43.1277 13.8329L44.1337 9.51156L40.7726 6.60779C40.6202 6.4706 40.5251 6.31421 40.4873 6.13861C40.4495 5.96302 40.4608 5.79169 40.5211 5.62462C40.5815 5.45756 40.6729 5.32038 40.7955 5.21307C40.9181 5.10576 41.0857 5.03716 41.2985 5.00729L45.7342 4.61859L47.449 0.548744C47.5252 0.365829 47.6435 0.228643 47.8039 0.137186C47.9642 0.0457285 48.1279 0 48.295 0C48.4621 0 48.6258 0.0457285 48.7861 0.137186C48.9465 0.228643 49.0648 0.365829 49.141 0.548744L50.8558 4.61859L55.2915 5.00729C55.5049 5.03777 55.6726 5.10637 55.7945 5.21307C55.9164 5.31977 56.0079 5.45695 56.0689 5.62462C56.1298 5.7923 56.1414 5.96393 56.1036 6.13953C56.0658 6.31513 55.9704 6.47121 55.8174 6.60779L52.4563 9.51156L53.4623 13.8329C53.5081 14.0311 53.4928 14.2103 53.4166 14.3707C53.3404 14.531 53.2337 14.6643 53.0965 14.7704C52.9593 14.8764 52.7993 14.9374 52.6164 14.9533C52.4334 14.9691 52.2581 14.9234 52.0905 14.8161L48.295 12.5296Z" fill="#FF3CAC"/>
<path d="M68.5278 12.5296L64.7323 14.8161C64.5646 14.9228 64.3893 14.9685 64.2064 14.9533C64.0235 14.938 63.8635 14.8771 63.7263 14.7704C63.5891 14.6637 63.4824 14.5304 63.4062 14.3707C63.33 14.2109 63.3147 14.0317 63.3604 13.8329L64.3665 9.51156L61.0054 6.60779C60.853 6.4706 60.7579 6.31421 60.7201 6.13861C60.6823 5.96302 60.6936 5.79169 60.7539 5.62462C60.8143 5.45756 60.9057 5.32038 61.0283 5.21307C61.1508 5.10576 61.3185 5.03716 61.5313 5.00729L65.967 4.61859L67.6818 0.548744C67.758 0.365829 67.8763 0.228643 68.0367 0.137186C68.197 0.0457285 68.3607 0 68.5278 0C68.6948 0 68.8586 0.0457285 69.0189 0.137186C69.1793 0.228643 69.2976 0.365829 69.3738 0.548744L71.0886 4.61859L75.5243 5.00729C75.7377 5.03777 75.9053 5.10637 76.0273 5.21307C76.1492 5.31977 76.2407 5.45695 76.3017 5.62462C76.3626 5.7923 76.3742 5.96393 76.3364 6.13953C76.2986 6.31513 76.2032 6.47121 76.0501 6.60779L72.6891 9.51156L73.6951 13.8329C73.7409 14.0311 73.7256 14.2103 73.6494 14.3707C73.5732 14.531 73.4665 14.6643 73.3293 14.7704C73.1921 14.8764 73.0321 14.9374 72.8491 14.9533C72.6662 14.9691 72.4909 14.9234 72.3233 14.8161L68.5278 12.5296Z" fill="#FF3CAC"/>
<path d="M88.7605 12.5296L84.965 14.8161C84.7973 14.9228 84.622 14.9685 84.4391 14.9533C84.2562 14.938 84.0961 14.8771 83.9589 14.7704C83.8218 14.6637 83.7151 14.5304 83.6388 14.3707C83.5626 14.2109 83.5474 14.0317 83.5931 13.8329L84.5991 9.51156L81.2381 6.60779C81.0857 6.4706 80.9905 6.31421 80.9527 6.13861C80.9149 5.96302 80.9262 5.79169 80.9866 5.62462C81.0469 5.45756 81.1384 5.32038 81.261 5.21307C81.3835 5.10576 81.5512 5.03716 81.764 5.00729L86.1996 4.61859L87.9145 0.548744C87.9907 0.365829 88.109 0.228643 88.2693 0.137186C88.4297 0.0457285 88.5934 0 88.7605 0C88.9275 0 89.0912 0.0457285 89.2516 0.137186C89.4119 0.228643 89.5302 0.365829 89.6064 0.548744L91.3213 4.61859L95.7569 5.00729C95.9703 5.03777 96.138 5.10637 96.2599 5.21307C96.3819 5.31977 96.4733 5.45695 96.5343 5.62462C96.5953 5.7923 96.6069 5.96393 96.5691 6.13953C96.5313 6.31513 96.4359 6.47121 96.2828 6.60779L92.9218 9.51156L93.9278 13.8329C93.9735 14.0311 93.9583 14.2103 93.8821 14.3707C93.8058 14.531 93.6991 14.6643 93.562 14.7704C93.4248 14.8764 93.2647 14.9374 93.0818 14.9533C92.8989 14.9691 92.7236 14.9234 92.5559 14.8161L88.7605 12.5296Z" fill="#FF3CAC"/>
</svg>
